# Exported by ZModeler 3.1.2 (Build 1123) with WavefrontOBJ filter (Build 66)
# 

mtllib prop_telegraph_01b.mtl

v -0.0966797 13.3481 -0.229492
v 0.100586 13.3481 -0.229492
v 0.100586 13.0264 -0.229492
v -0.0966797 13.0264 -0.229492
v 0.100586 13.0264 -0.0976563
v -0.0966797 13.0264 -0.0976563
v -0.0966797 13.3481 -0.0976563
v 0.100586 13.3481 -0.0976563
v 0.394531 13.9268 0.287109
v 0.394531 13.7559 0.187988
v 0.335449 13.7266 0.239258
v 0.335449 13.8975 0.337891
v 0.453125 13.8975 0.337891
v 0.453125 13.7266 0.239258
v 0.394531 13.8682 0.388672
v 0.394531 13.6973 0.290039
v -0.977539 13.9268 0.287109
v -0.977539 13.7559 0.187988
v -1.03613 13.7266 0.239258
v -1.03613 13.8975 0.337891
v -0.918457 13.8975 0.337891
v -0.918457 13.7266 0.239258
v -0.977539 13.8682 0.388672
v -0.977539 13.6973 0.290039
v 0.908691 13.9268 -0.286133
v 0.908691 13.7559 -0.187012
v 0.967773 13.7266 -0.238281
v 0.967773 13.8975 -0.336914
v 0.850098 13.8975 -0.336914
v 0.850098 13.7266 -0.238281
v 0.908691 13.8682 -0.387695
v 0.908691 13.6968 -0.289063
v -0.985352 13.9268 -0.286133
v -0.985352 13.7559 -0.187012
v -0.92627 13.7266 -0.238281
v -0.92627 13.8975 -0.336914
v -1.04395 13.8975 -0.336914
v -1.04395 13.7266 -0.238281
v -0.985352 13.8682 -0.387695
v -0.985352 13.6968 -0.289063
v -0.163086 15.0469 0
v -0.081543 15.0469 0.141113
v 0.081543 15.0469 0.141113
v 0.163086 15.0469 0
v -0.081543 15.0469 -0.141113
v -0.0849609 0 -0.146973
v -0.169922 0 0
v -0.0849609 0 0.146973
v 0.0849609 0 0.146973
v 0.169922 0 0
v 0.081543 15.0469 -0.141113
v 0.0849609 0 -0.146973
v -1.08154 13.7886 0.208984
v -1.08154 13.6353 0.208984
v 1.07959 13.6353 0.208984
v 1.07959 13.7886 0.208984
v -1.07861 14.1104 -0.203613
v -1.07861 14.2637 -0.203613
v 1.08252 14.2637 -0.203613
v 1.08252 14.1104 -0.203613
v -1.08252 14.2637 0.207031
v -1.08252 14.1104 0.207031
v 1.07861 14.1104 0.207031
v 1.07861 14.2637 0.207031
v -1.08154 13.6353 -0.203613
v -1.08154 13.7886 -0.203613
v 1.07959 13.7886 -0.203613
v 1.07959 13.6353 -0.203613


vn -0 0 -1
vn -0 -1 0
vn -1 0 0
vn -0 1 0
vn 1 0 0
vn -0.316406 0.472656 -0.820313
vn 0.316406 0.472656 -0.820313
vn -0.949219 0.15625 -0.273438
vn -0.949219 -0.15625 0.273438
vn 0.949219 0.15625 -0.273438
vn 0.949219 -0.15625 0.273438
vn 0.316406 -0.472656 0.820313
vn -0.316406 -0.472656 0.820313
vn -0 -0.867188 -0.5
vn -0 0.867188 0.5
vn 0.316406 0.472656 0.820313
vn -0.316406 0.472656 0.820313
vn 0.949219 0.15625 0.273438
vn 0.949219 -0.15625 -0.273438
vn -0.949219 0.15625 0.273438
vn -0.949219 -0.15625 -0.273438
vn -0.316406 -0.472656 -0.820313
vn 0.316406 -0.472656 -0.820313
vn -0 -0.867188 0.5
vn -0 0.867188 -0.5
vn -0.980469 0 -0.195313
vn -0.324219 0 -0.945313
vn -0.652344 0 -0.757813
vn -0.984375 0 0.183594
vn -0.5 0 0.867188
vn 0.5 0 0.867188
vn 0.980469 0 0.195313
vn 0.984375 0 -0.183594
vn 0.660156 0 -0.753906
vn 0.332031 0 -0.941406
vn -0 0 1


vt 0.560196 0.458496
vt 0.742264 0.458496
vt 0.742264 0.607635
vt 0.560196 0.607635
vt 0.629562 0.476028
vt 0.629562 0.567474
vt 0.507172 0.56749
vt 0.507172 0.476028
vt 0.629562 0.458496
vt 0.629562 0.607635
vt 0.507172 0.607635
vt 0.507172 0.458496
vt 0.629562 0.476303
vt 0.629562 0.567749
vt 0.507172 0.567749
vt 0.507172 0.476303
vt 0.915405 0.497452
vt 0.915405 0.346558
vt 0.993134 0.346558
vt 0.993134 0.497452
vt 0.702637 0.511185
vt 0.657455 0.511185
vt 0.657455 0.488525
vt 0.702637 0.488525
vt 0.865082 0.604553
vt 0.751907 0.572006
vt 0.751907 0.506897
vt 0.865082 0.47435
vt 0.232986 6.41362
vt 0.0822906 6.41362
vt 0.0017395 -0.00230408
vt 0.163147 -0.00230408
vt 0.383865 6.4136
vt 0.232574 6.41362
vt 0.322357 -0.00230408
vt 0.383148 6.4136
vt 0.498932 -0.00230408
vt 0.494919 6.41357
vt 0.232986 6.41356
vt 0.0822906 6.41357
vt 0.383865 6.41353
vt 0.232574 6.41356
vt 0.494919 6.41379
vt 0.383148 6.41353
vt 0.751953 0.572006
vt 0.751953 0.506897
vt 0.865112 0.47435
vt 0.865112 0.604553
vt 0.00654602 0.00309753
vt 1.00156 0.00309753
vt 1.00156 1.1866
vt 0.00654602 1.1866
vt 0.0284424 0.00587463
vt 1.00229 0.00587463
vt 1.0023 1.18938
vt 0.0284424 1.18938
vt 0.00654602 0.00299072
vt 1.00156 0.00299072
vt 1.00156 1.18649
vt 0.00654602 1.18649


usemtl prop_telegraph_01prop_traffic_01_lod_a

f 53/49/36 54/50/36 55/51/36
f 55/51/36 56/52/36 53/49/36
f 55/51/1 54/50/1 53/49/1
f 53/49/1 56/52/1 55/51/1
f 57/53/1 58/54/1 59/55/1
f 59/55/1 60/56/1 57/53/1
f 59/55/36 58/54/36 57/53/36
f 57/53/36 60/56/36 59/55/36
f 61/57/36 62/58/36 63/59/36
f 63/59/36 64/60/36 61/57/36
f 63/59/1 62/58/1 61/57/1
f 61/57/1 64/60/1 63/59/1
f 65/57/1 66/58/1 67/59/1
f 67/59/1 68/60/1 65/57/1
f 67/59/36 66/58/36 65/57/36
f 65/57/36 68/60/36 67/59/36
usemtl Prop_Telegraph_01a

f 1/1/1 2/2/1 3/3/1
f 3/3/1 4/4/1 1/1/1
f 4/5/2 3/6/2 5/7/2
f 5/7/2 6/8/2 4/5/2
f 1/9/3 4/10/3 6/11/3
f 6/11/3 7/12/3 1/9/3
f 2/13/4 1/14/4 7/15/4
f 7/15/4 8/16/4 2/13/4
f 3/10/5 2/9/5 8/12/5
f 8/12/5 5/11/5 3/10/5
f 9/17/6 10/18/7 11/19/8
f 11/19/8 12/20/9 9/17/6
f 13/17/10 14/18/11 10/19/7
f 10/19/7 9/20/6 13/17/10
f 15/17/12 16/18/13 14/19/11
f 14/19/11 13/20/10 15/17/12
f 12/17/9 11/18/8 16/19/13
f 16/19/13 15/20/12 12/17/9
f 11/21/14 10/22/14 14/23/14
f 14/23/14 16/24/14 11/21/14
f 15/21/15 13/22/15 9/23/15
f 9/23/15 12/24/15 15/21/15
f 17/17/6 18/18/7 19/19/8
f 19/19/8 20/20/9 17/17/6
f 21/17/10 22/18/11 18/19/7
f 18/19/7 17/20/6 21/17/10
f 23/17/12 24/18/13 22/19/11
f 22/19/11 21/20/10 23/17/12
f 20/17/9 19/18/8 24/19/13
f 24/19/13 23/20/12 20/17/9
f 19/21/14 18/22/14 22/23/14
f 22/23/14 24/24/14 19/21/14
f 23/21/15 21/22/15 17/23/15
f 17/23/15 20/24/15 23/21/15
f 25/17/16 26/18/17 27/19/18
f 27/19/18 28/20/19 25/17/16
f 29/17/20 30/18/21 26/19/17
f 26/19/17 25/20/16 29/17/20
f 31/17/22 32/18/23 30/19/21
f 30/19/21 29/20/20 31/17/22
f 28/17/19 27/18/18 32/19/23
f 32/19/23 31/20/22 28/17/19
f 27/21/24 26/22/24 30/23/24
f 30/23/24 32/24/24 27/21/24
f 31/21/25 29/22/25 25/23/25
f 25/23/25 28/24/25 31/21/25
f 33/17/16 34/18/17 35/19/18
f 35/19/18 36/20/19 33/17/16
f 37/17/20 38/18/21 34/19/17
f 34/19/17 33/20/16 37/17/20
f 39/17/22 40/18/23 38/19/21
f 38/19/21 37/20/20 39/17/22
f 36/17/19 35/18/18 40/19/23
f 40/19/23 39/20/22 36/17/19
f 35/21/24 34/22/24 38/23/24
f 38/23/24 40/24/24 35/21/24
f 39/21/25 37/22/25 33/23/25
f 33/23/25 36/24/25 39/21/25
f 41/25/4 42/26/4 43/27/4
f 43/27/4 44/28/4 41/25/4
f 41/29/26 45/30/27 46/31/28
f 46/31/28 47/32/29 41/29/26
f 42/33/30 41/34/26 47/32/29
f 47/32/29 48/35/30 42/33/30
f 42/36/30 48/35/30 49/37/31
f 49/37/31 43/38/31 42/36/30
f 44/39/32 43/40/31 49/31/31
f 49/31/31 50/32/33 44/39/32
f 51/41/34 44/42/32 50/32/33
f 50/32/33 52/35/35 51/41/34
f 45/43/27 51/44/34 52/35/35
f 52/35/35 46/37/28 45/43/27
f 51/45/4 45/46/4 41/47/4
f 41/47/4 44/48/4 51/45/4
